<svg width="143" height="71" viewBox="0 0 143 71" fill="none" xmlns="http://www.w3.org/2000/svg">
<path d="M45.9068 54.1C36.2068 50.55 45.5068 20.8 45.3068 19.05C45.0568 16.65 41.5068 15.8 40.7568 16.85C39.2568 18.9 36.4068 27.75 34.9068 37.15C32.7568 36.1 29.3568 35.4 26.6068 35.3C27.4568 31.85 28.3068 28.65 29.2068 26.2L29.3568 26.35C29.3568 26.35 29.4568 25.8 29.7068 25.05C30.5568 23.15 31.4568 21.85 32.5068 21.4C32.8568 21.4 33.1568 21.35 33.4068 21.25C33.4568 21.25 33.5068 21.2 33.5068 21.2C36.2568 20 36.8568 14.3 32.5068 14.3C30.3068 14.3 28.7068 15.4 27.6068 16.75C22.6068 16 17.0068 13.05 11.6568 14.95C3.65684 17.8 0.106836 31.7 11.6068 31.7C19.5568 30.7 15.8068 29.9 15.1068 29.05C13.5568 27.15 13.8068 20.9 20.5068 20.9C22.4068 20.9 24.0068 21.1 25.4068 21.3C25.3068 21.6 25.2568 21.85 25.2568 21.95C20.5568 30.05 19.5568 50.1 11.9068 53C8.00684 54.45 6.50684 49.35 6.15684 50.5C4.25684 57.2 8.05684 62.65 13.4568 62.65C19.5068 62.65 22.6068 51.75 25.1568 41.2C27.9568 41.8 31.5568 42.8 34.1068 44.3C33.4568 54.25 35.1068 63 42.4068 63C47.8568 63 50.1568 57.9 50.1568 54.45C50.1568 53.2 48.6068 55.1 45.9068 54.1ZM66.7131 32.6C64.5631 33.25 61.0131 33.7 57.6131 32.3C57.2131 31.7 56.7131 31.2 56.1631 30.75C55.4131 29.35 53.8131 27.3 51.2131 29.05C46.7631 29.3 43.0631 33.85 42.8631 39.55C42.6131 45.55 46.2631 50.6 51.0131 50.75C55.7131 50.95 59.7631 46.25 60.0131 40.25C60.0131 39.75 60.0131 39.3 59.9631 38.8C61.9131 39 63.8631 38.8 65.3131 37.95C65.9631 37.6 68.1131 32.2 66.7131 32.6ZM56.3631 38.6C56.2631 41.8 54.2131 44.3 51.8131 44.2C49.4131 44.1 47.6131 41.45 47.7131 38.25C47.8131 35.85 49.0131 33.8 50.6131 33.05C51.1631 34.4 52.2131 35.65 52.9631 36.3C53.7631 36.95 54.9631 37.6 56.3631 38.05C56.3631 38.25 56.3631 38.4 56.3631 38.6Z" fill="black"/>
<path d="M123.951 39.3C123.951 39.3 123.501 36.9 123.201 35.35C121.601 36.9 119.801 38.35 118.301 39.5C118.001 37.65 117.351 36.05 116.551 35.25C115.701 34.4 113.801 31.35 113.801 31.35C113.801 31.35 116.901 24 113.801 24C111.451 24 107.901 26.35 108.551 29.95C107.101 32.25 104.851 35.8 103.401 37.75C103.101 38.2 104.651 41.75 105.351 41.05C105.401 41.05 105.401 41.05 105.401 41.05C104.701 43.05 105.701 49.15 111.501 49.15C113.051 49.15 114.301 48.8 115.301 48.2C120.301 46.7 123.951 39.3 123.951 39.3ZM106.351 40.65C106.251 40.55 106.151 40.45 106.051 40.45C108.351 38.2 109.751 35.75 110.601 33.85C114.251 38.95 110.251 44.5 106.351 40.65ZM113.951 25.35L112.851 29.5C111.801 26.95 113.951 25.35 113.951 25.35ZM137.943 28C137.843 26.1 133.543 24.8 133.643 26.75C133.793 28.45 133.893 30.65 133.943 33.05C132.343 36.95 129.593 41.25 127.593 40.15C124.943 38.65 127.143 33.9 127.143 31.3C127.143 27.35 121.843 27.45 121.843 29.15C121.843 34.95 117.643 48.5 124.743 48.5C128.843 48.5 131.543 45.85 133.343 42.55C132.543 47.65 130.843 52.2 127.343 54.05C122.743 56.45 119.793 54.3 119.793 52.6C119.743 52.05 119.693 51 118.793 51.8C115.843 54.5 116.643 63.9 125.993 63.25C142.143 62.1 138.093 29.9 137.943 28Z" fill="black"/>
<g clip-path="url(#clip0_7_7)">
<path d="M106.25 42.5C106.123 42.4995 106.002 42.4457 105.917 42.3517C105.843 42.2735 105.806 42.1672 105.816 42.06C105.874 41.4554 105.797 40.8454 105.591 40.2742C105.312 39.5091 104.817 38.8412 104.167 38.3517V25.4L104.96 26.1025C105.653 26.7154 106.711 26.6536 107.327 25.9642L109.577 23.445C109.874 23.1129 110.026 22.6765 109.999 22.2322C109.973 21.7879 109.771 21.3724 109.437 21.0775L102.5 14.935V4.76832C103.014 4.47298 103.332 3.9261 103.333 3.33332V1.66665C103.333 0.746179 102.587 -1.33166e-05 101.667 -1.33166e-05H95C94.0795 -1.33166e-05 93.3333 0.746179 93.3333 1.66665V3.33332C93.3351 3.9261 93.6527 4.47298 94.1666 4.76832V7.55499L86.1142 0.422487C85.4782 -0.140992 84.5217 -0.140992 83.8858 0.422487L80.5733 3.35666C78.2421 3.02345 75.8777 3.67966 74.0517 5.16666L73.9142 5.28166C73.7535 5.43367 73.5739 5.56446 73.38 5.67082C73.1264 5.73644 72.8633 5.75759 72.6025 5.73332C72.3451 5.72427 72.0873 5.7315 71.8308 5.75499C70.6111 5.94239 69.5462 6.68229 68.945 7.75999C68.5468 8.4523 68.27 9.20765 68.1267 9.99333C67.1348 10.0218 66.208 10.4937 65.6017 11.2792C64.9058 12.2353 64.5966 13.419 64.7358 14.5933C64.82 15.3837 65.0005 16.1609 65.2733 16.9075L60.5658 21.0742C60.2315 21.3693 60.0286 21.7855 60.0022 22.2307C59.9757 22.6759 60.1279 23.1132 60.425 23.4458L62.675 25.9642C63.2915 26.6539 64.3494 26.716 65.0425 26.1033L65.8333 25.4008V38.3517C65.1834 38.8416 64.6893 39.5094 64.4108 40.2742C64.2044 40.8449 64.1276 41.4543 64.1858 42.0583C64.196 42.1661 64.1593 42.273 64.085 42.3517C63.9992 42.4461 63.8776 42.5 63.75 42.5C61.6799 42.5023 60.0023 44.1799 60 46.25V46.6667C60 48.5076 61.4924 50 63.3333 50H106.667C108.508 50 110 48.5076 110 46.6667V46.25C109.998 44.1799 108.32 42.5023 106.25 42.5ZM95 1.66665H101.667V3.33332H95V1.66665ZM95.8333 4.99999H100.833V13.4592L95.8333 9.03083V4.99999ZM66.3967 14.4533C66.2951 13.6958 66.4806 12.9277 66.9167 12.3C67.2834 11.7964 67.9189 11.5657 68.5233 11.7167C68.7584 11.8019 69.0194 11.7771 69.2342 11.649C69.4489 11.5209 69.5949 11.3032 69.6317 11.0558C69.7186 10.2028 69.9702 9.37472 70.3725 8.61749C70.7066 7.98417 71.3131 7.53933 72.0175 7.41082C72.2012 7.39441 72.3858 7.39051 72.57 7.39916C73.0517 7.43497 73.5357 7.37376 73.9933 7.21916C74.3578 7.05072 74.6933 6.82572 74.9875 6.55249L75.1142 6.44666C76.1526 5.60907 77.415 5.0963 78.7433 4.97249L66.64 15.6967C66.5186 15.2911 66.4371 14.8747 66.3967 14.4533ZM63.9167 24.8542L61.6667 22.325L85.0091 1.66665L108.333 22.3333L106.083 24.8517C106.078 24.8563 106.07 24.8563 106.064 24.8517L86.1142 7.18499C85.4785 6.6199 84.5206 6.6199 83.885 7.18499L63.9167 24.8542ZM67.5 23.9258L85.0091 8.43333L102.5 23.9242V37.5908C102.46 37.5825 102.422 37.5692 102.382 37.5625C100.482 37.2349 98.6042 38.2509 97.8391 40.0208C96.2021 39.8565 94.6889 40.9083 94.2725 42.5H93.3333C93.0534 42.4997 92.7743 42.5277 92.5 42.5833V35C92.5 30.8579 89.1421 27.5 85 27.5C80.8578 27.5 77.5 30.8579 77.5 35V42.5833C77.2257 42.5277 76.9465 42.4997 76.6667 42.5H75.7275C75.3136 40.9062 73.7991 39.8524 72.1608 40.0183C71.3984 38.2461 69.519 37.229 67.6183 37.56C67.5783 37.5667 67.54 37.58 67.5 37.5883V23.9258ZM89.1667 46.6667V48.3334H85.8333V36.6667C85.8333 36.2064 85.4602 35.8333 85 35.8333C84.5397 35.8333 84.1667 36.2064 84.1667 36.6667V48.3334H80.8333V46.6667C80.8295 45.3621 80.2121 44.1353 79.1667 43.355V35C79.1722 32.1037 81.3003 29.6492 84.1667 29.2333V32.5C84.1667 32.9602 84.5397 33.3333 85 33.3333C85.4602 33.3333 85.8333 32.9602 85.8333 32.5V29.2333C88.6997 29.6492 90.8278 32.1037 90.8333 35V43.355C89.7878 44.1353 89.1705 45.3621 89.1667 46.6667ZM78.3333 48.3334H63.3333C62.4129 48.3334 61.6667 47.5872 61.6667 46.6667V46.25C61.6667 45.0994 62.5994 44.1667 63.75 44.1667C64.3478 44.1661 64.9177 43.9138 65.32 43.4717C65.7093 43.0435 65.8999 42.4711 65.845 41.895C65.8109 41.5354 65.8576 41.1726 65.9817 40.8333C66.282 39.9876 67.0107 39.3662 67.8933 39.2033C68.0351 39.1793 68.1787 39.167 68.3225 39.1667C69.5162 39.1622 70.5465 40.0023 70.7825 41.1725C70.831 41.4129 70.9829 41.6197 71.1977 41.7378C71.4125 41.856 71.6685 41.8736 71.8975 41.7859C72.409 41.5723 72.9938 41.6318 73.4518 41.9442C73.9097 42.2565 74.1787 42.7792 74.1667 43.3334C74.1667 43.7936 74.5398 44.1667 75 44.1667H76.6667C78.0474 44.1667 79.1667 45.286 79.1667 46.6667V48.3334H78.3333ZM108.333 46.6667C108.333 47.5872 107.587 48.3334 106.667 48.3334H90.8333V46.6667C90.8333 45.286 91.9526 44.1667 93.3333 44.1667H95C95.4602 44.1667 95.8333 43.7936 95.8333 43.3334C95.8211 42.7792 96.0901 42.2564 96.5482 41.9442C97.0062 41.632 97.5911 41.5727 98.1025 41.7867C98.3314 41.8744 98.5874 41.8568 98.8023 41.7387C99.0171 41.6205 99.169 41.4137 99.2175 41.1733C99.4358 40.0698 100.366 39.249 101.488 39.1695C102.61 39.09 103.647 39.7716 104.018 40.8333C104.142 41.1735 104.189 41.537 104.155 41.8975C104.1 42.473 104.291 43.0448 104.68 43.4725C105.082 43.9143 105.652 44.1663 106.25 44.1667C107.401 44.1667 108.333 45.0994 108.333 46.25V46.6667Z" fill="black"/>
<path d="M85 24.1667C87.7614 24.1667 90 21.9281 90 19.1667C90 16.4052 87.7614 14.1667 85 14.1667C82.2386 14.1667 80 16.4052 80 19.1667C80.0028 21.9269 82.2397 24.1639 85 24.1667ZM88.3333 19.1667C88.3276 20.682 87.3006 22.0028 85.8333 22.3817V15.9517C87.3006 16.3305 88.3276 17.6513 88.3333 19.1667ZM84.1667 15.9517V22.3817C82.6965 22.0075 81.6674 20.6837 81.6674 19.1667C81.6674 17.6496 82.6965 16.3258 84.1667 15.9517Z" fill="black"/>
<path d="M70 29.1667C69.5398 29.1667 69.1667 29.5398 69.1667 30C69.1667 30.4602 69.5398 30.8333 70 30.8333H70.8334V33.3333C70.8334 33.7936 71.2064 34.1667 71.6667 34.1667C72.1269 34.1667 72.5 33.7936 72.5 33.3333V30.8333H76.6667C77.1269 30.8333 77.5 30.4602 77.5 30C77.5 29.5398 77.1269 29.1667 76.6667 29.1667H75V26.6667H77.5C77.9603 26.6667 78.3334 26.2936 78.3334 25.8333C78.3334 25.3731 77.9603 25 77.5 25H70C69.5398 25 69.1667 25.3731 69.1667 25.8333C69.1667 26.2936 69.5398 26.6667 70 26.6667H73.3334V29.1667H70Z" fill="black"/>
<path d="M92.5 26.6667H95V29.1667H93.3334C92.8731 29.1667 92.5 29.5398 92.5 30C92.5 30.4602 92.8731 30.8333 93.3334 30.8333H97.5V33.3333C97.5 33.7936 97.8731 34.1667 98.3334 34.1667C98.7936 34.1667 99.1667 33.7936 99.1667 33.3333V30.8333H100C100.46 30.8333 100.833 30.4602 100.833 30C100.833 29.5398 100.46 29.1667 100 29.1667H96.6667V26.6667H100C100.46 26.6667 100.833 26.2936 100.833 25.8333C100.833 25.3731 100.46 25 100 25H92.5C92.0398 25 91.6667 25.3731 91.6667 25.8333C91.6667 26.2936 92.0398 26.6667 92.5 26.6667Z" fill="black"/>
</g>
<defs>
<clipPath id="clip0_7_7">
<rect width="50" height="50" fill="white" transform="translate(60)"/>
</clipPath>
</defs>
</svg>
